<svg xmlns="http://www.w3.org/2000/svg" width="19" height="16" viewBox="0 0 19 16" fill="none">
<path d="M7.74089 2.15322C7.74089 0.967611 8.7085 0 9.89411 0C11.0797 0 12.0454 0.967611 12.0454 2.15322C12.0454 3.33883 11.0797 4.30453 9.89411 4.30453C8.7085 4.30453 7.74089 3.33883 7.74089 2.15322ZM18.377 7.16721L18.3483 7.14426C17.7363 6.68722 16.8663 6.81343 16.4092 7.42345L16.0669 7.8824L13.2578 5.83626C12.883 5.56281 12.4852 5.43468 12.0225 5.43468H7.97801C7.93976 5.43468 7.90343 5.4366 7.8671 5.4366C8.10422 5.68519 8.24955 6.02175 8.24955 6.39082V15.2198C8.24955 15.5066 8.15968 15.7744 8.00861 15.9981H11.6916C12.2462 15.9981 12.7013 15.5449 12.7013 14.9884V8.90738L14.7685 10.4142L15.5219 10.9784C16.1339 11.4354 17.0039 11.3111 17.461 10.6992L18.6523 9.10625C19.1132 8.49624 18.987 7.62615 18.377 7.16721ZM6.39465 14.7532H1.24489V6.90522C1.36154 7.20736 1.65603 7.42345 2.00215 7.42345H5.63739C5.98159 7.42345 6.27608 7.20736 6.39465 6.90522V14.7532ZM4.12478 13.4548C4.12478 13.2865 3.98709 13.1507 3.81881 13.1507H2.41329C2.24501 13.1507 2.10924 13.2865 2.10924 13.4548C2.10924 13.623 2.24501 13.7588 2.41329 13.7588H3.81881C3.989 13.7588 4.12478 13.623 4.12478 13.4548ZM5.5303 11.7758C5.5303 11.6075 5.39453 11.4698 5.22625 11.4698H2.41329C2.24501 11.4698 2.10924 11.6075 2.10924 11.7758C2.10924 11.9441 2.24501 12.0798 2.41329 12.0798H5.22625C5.39453 12.0798 5.5303 11.9441 5.5303 11.7758ZM2.41329 10.4009H3.81881C3.98709 10.4009 4.12478 10.2632 4.12478 10.0949C4.12478 9.92662 3.98709 9.79084 3.81881 9.79084H2.41329C2.24501 9.79084 2.10924 9.92853 2.10924 10.0949C2.10924 10.2632 2.24501 10.4009 2.41329 10.4009ZM5.5303 8.41592C5.5303 8.24764 5.39453 8.11187 5.22625 8.11187H2.41329C2.24501 8.11187 2.10924 8.24764 2.10924 8.41592C2.10924 8.5842 2.24501 8.71997 2.41329 8.71997H5.22625C5.39453 8.72188 5.5303 8.5842 5.5303 8.41592ZM6.86315 5.61444H6.4501V6.24931H6.70061C6.86889 6.24931 7.00466 6.38508 7.00466 6.55336V15.0573C7.00466 15.2255 6.86889 15.3613 6.70061 15.3613H0.940839C0.772559 15.3613 0.636787 15.2255 0.636787 15.0573V6.55336C0.636787 6.38508 0.772559 6.24931 0.940839 6.24931H1.19135V5.61444H0.778296C0.349946 5.61444 0 5.96438 0 6.39273V15.2217C0 15.6501 0.349946 16 0.778296 16H6.86315C7.2915 16 7.64145 15.6501 7.64145 15.2217V6.39082C7.63954 5.96438 7.28959 5.61444 6.86315 5.61444ZM2.00215 6.81343H5.63739C5.7483 6.81343 5.83817 6.72356 5.83817 6.61265V5.35437C5.83817 5.24346 5.7483 5.15358 5.63739 5.15358H4.6736C4.6736 4.03107 2.96594 4.03107 2.96594 5.15358H2.00215C1.89124 5.15358 1.80136 5.24346 1.80136 5.35437V6.61265C1.80136 6.72165 1.89315 6.81343 2.00215 6.81343Z" fill="white"/>
</svg>