<svg width="9" height="9" viewBox="0 0 9 9" fill="none" xmlns="http://www.w3.org/2000/svg">
<g clip-path="url(#clip0_631_20410)">
<path d="M4.48865 6.81129C5.76925 6.81129 6.80738 5.77316 6.80738 4.49256C6.80738 3.21196 5.76925 2.17383 4.48865 2.17383C3.20805 2.17383 2.16992 3.21196 2.16992 4.49256C2.16992 5.77316 3.20805 6.81129 4.48865 6.81129Z" fill="white"/>
<path d="M6.63088 4.49299C6.6256 5.37682 6.06748 6.20079 5.22943 6.50361C4.37553 6.81172 3.416 6.54939 2.83323 5.85394C2.25751 5.16554 2.19061 4.14967 2.65365 3.3838C3.11141 2.62498 4.02693 2.21299 4.9002 2.38905C5.7805 2.56512 6.46186 3.27817 6.60623 4.16375C6.6256 4.27291 6.63088 4.38383 6.63088 4.49299C6.63264 4.72011 6.98476 4.72011 6.983 4.49299C6.97772 3.44718 6.31573 2.50702 5.33507 2.14609C4.36497 1.79045 3.22585 2.10031 2.5709 2.89963C1.90715 3.70952 1.8068 4.8768 2.35083 5.77824C2.89486 6.67967 3.96531 7.14271 4.99351 6.93496C5.98826 6.73601 6.79638 5.8962 6.94955 4.89089C6.96892 4.75884 6.98124 4.62504 6.983 4.49123C6.98476 4.26587 6.63264 4.26587 6.63088 4.49299Z" fill="white"/>
</g>
<defs>
<clipPath id="clip0_631_20410">
<rect width="9" height="9" fill="white"/>
</clipPath>
</defs>
</svg>
