<svg xmlns="http://www.w3.org/2000/svg" width="60" height="60" viewBox="0 0 60 60" fill="none">
  <g clip-path="url(#clip0_1174_7365)">
    <path d="M30 60C46.5685 60 60 46.5685 60 30C60 13.4315 46.5685 0 30 0C13.4315 0 0 13.4315 0 30C0 46.5685 13.4315 60 30 60Z" fill="#FFEAEA"/>
    <path d="M41.9266 19.4286H35.4212V18.3214C35.4212 16.4946 33.9575 15 32.1685 15H27.8315C26.0425 15 24.5788 16.4946 24.5788 18.3214V19.4286H18.0734C16.6422 19.4286 16.6422 21.6429 18.0734 21.6429H41.9266C43.3578 21.6429 43.3578 19.4286 41.9266 19.4286ZM33.2527 19.4286H26.7473V18.3214C26.7473 17.7125 27.2352 17.2143 27.8315 17.2143H32.1685C32.7648 17.2143 33.2527 17.7125 33.2527 18.3214V19.4286ZM20.1009 41.7707C20.2093 44.14 22.1068 46 24.4379 46H35.5621C37.8932 46 39.7907 44.14 39.8991 41.7707L40.7773 25.0196C40.8098 24.3886 40.3111 23.8571 39.6931 23.8571H20.3069C19.6889 23.8571 19.1902 24.3886 19.2227 25.0196L20.1009 41.7707ZM32.1685 30.5C32.1685 29.0386 34.3369 29.0386 34.3369 30.5V39.3571C34.3369 40.8186 32.1685 40.8186 32.1685 39.3571V30.5ZM25.6631 30.5C25.6631 29.0386 27.8315 29.0386 27.8315 30.5V39.3571C27.8315 40.8186 25.6631 40.8186 25.6631 39.3571V30.5Z" fill="#FF5B5B"/>
  </g>
  <defs>
    <clipPath id="clip0_1174_7365">
      <rect width="60" height="60" fill="white"/>
    </clipPath>
  </defs>
</svg>