<svg width="20" height="20" viewBox="0 0 20 20" fill="none" xmlns="http://www.w3.org/2000/svg">
<path d="M3.33333 8.05852V12.3859C2.95219 12.2873 2.61455 12.065 2.37327 11.7538C2.132 11.4427 2.00072 11.0604 2 10.6667V9.77779C2.00072 9.38408 2.132 9.00173 2.37327 8.69062C2.61455 8.3795 2.95219 8.1572 3.33333 8.05852ZM16.2222 7.60036V4L3.77778 6.88403V13.5604L16.2222 16.4444V12.8441C16.7238 12.741 17.1745 12.4681 17.4983 12.0715C17.8221 11.6749 17.9993 11.1787 18 10.6667V9.77779C17.9993 9.26574 17.8221 8.76959 17.4983 8.37295C17.1745 7.97632 16.7238 7.70346 16.2222 7.60036Z" fill="white"/>
</svg>
