<svg width="303" height="300" viewBox="0 0 303 300" fill="none" xmlns="http://www.w3.org/2000/svg">
<g id="No Upcoming Trips">
<g id="Group 3">
<mask id="mask0_949_4790" style="mask-type:luminance" maskUnits="userSpaceOnUse" x="27" y="64" width="254" height="146">
<path id="Clip 2" fill-rule="evenodd" clip-rule="evenodd" d="M90.5053 90.5278H58.0963C53.8851 90.5278 50.4407 93.9834 50.4407 98.208C50.4407 102.433 53.8851 105.888 58.0963 105.888H74.5896H79.4232C83.6344 105.888 87.0788 109.345 87.0788 113.57C87.0788 115.681 86.2157 117.605 84.8277 118.992C83.4452 120.386 81.5265 121.251 79.4232 121.251H69.1112H63.418H35.64C31.4288 121.251 27.9844 124.708 27.9844 128.931C27.9844 133.155 31.4288 136.611 35.64 136.611H55.5262C49.5228 150.766 46.1982 166.34 46.1982 182.697C46.1982 188.631 46.637 194.463 47.4788 200.162C47.8303 202.543 48.2545 204.904 48.7504 207.239C63.1941 205.023 78.5154 203.239 94.5105 201.939L95.7139 203.04L96.8467 201.755C116.063 200.255 136.233 199.456 157.036 199.456C201.234 199.456 242.594 203.06 277.957 209.328C279.321 203.399 280.24 197.3 280.674 191.064C280.872 188.299 280.969 185.508 280.969 182.697C280.969 117.651 228.417 64.9248 163.584 64.9248C135.953 64.9248 110.557 74.5035 90.5053 90.5278Z" fill="white"/>
</mask>
<g mask="url(#mask0_949_4790)">
<path id="Fill 1" fill-rule="evenodd" clip-rule="evenodd" d="M22.3887 214.926H286.568V59.3291H22.3887V214.926Z" fill="#F1F2F7"/>
</g>
</g>
<g id="Group 6">
<mask id="mask1_949_4790" style="mask-type:luminance" maskUnits="userSpaceOnUse" x="0" y="120" width="21" height="17">
<path id="Clip 5" fill-rule="evenodd" clip-rule="evenodd" d="M7.7541 120.894C3.48918 120.894 0 124.421 0 128.729C0 133.038 3.48918 136.565 7.7541 136.565H12.394C16.6601 136.565 20.1493 133.038 20.1493 128.729C20.1493 124.421 16.6601 120.894 12.394 120.894H7.7541Z" fill="white"/>
</mask>
<g mask="url(#mask1_949_4790)">
<path id="Fill 4" fill-rule="evenodd" clip-rule="evenodd" d="M-5.5957 142.164H25.7476V115.298H-5.5957V142.164Z" fill="#F1F2F7"/>
</g>
</g>
<g id="Group 9">
<mask id="mask2_949_4790" style="mask-type:luminance" maskUnits="userSpaceOnUse" x="48" y="199" width="255" height="101">
<path id="Clip 8" fill-rule="evenodd" clip-rule="evenodd" d="M96.678 201.911L95.544 203.188L94.3407 202.093C78.35 203.386 63.0332 205.156 48.5918 207.36C59.8429 260.288 106.97 300.001 163.398 300.001C189.819 300.001 214.199 291.289 233.818 276.595H254.703C258.912 276.595 262.356 273.16 262.356 268.963C262.356 266.867 261.493 264.953 260.106 263.575C258.723 262.191 256.804 261.331 254.703 261.331H245.62C241.41 261.331 237.966 257.896 237.966 253.699C237.966 251.602 238.829 249.689 240.216 248.31C241.599 246.925 243.518 246.067 245.62 246.067H294.508C298.718 246.067 302.161 242.632 302.161 238.433C302.161 236.337 301.298 234.424 299.911 233.046C298.523 231.661 296.613 230.801 294.508 230.801H270.536C273.597 223.999 276.027 216.855 277.745 209.436C242.39 203.209 201.04 199.626 156.851 199.626C136.054 199.626 115.888 200.42 96.678 201.911Z" fill="white"/>
</mask>
<g mask="url(#mask2_949_4790)">
<path id="Fill 7" fill-rule="evenodd" clip-rule="evenodd" d="M42.9961 305.596H307.758V194.027H42.9961V305.596Z" fill="#E8EBF2"/>
</g>
</g>
<g id="Group 12">
<mask id="mask3_949_4790" style="mask-type:luminance" maskUnits="userSpaceOnUse" x="96" y="185" width="184" height="25">
<path id="Clip 11" fill-rule="evenodd" clip-rule="evenodd" d="M257.212 200.714L245.393 189.881L232.746 199.269L227.445 191.965L206.517 199.269L158.305 191.965L130.281 199.702C138.85 199.415 147.556 199.269 156.378 199.269C200.518 199.269 241.824 202.941 277.141 209.329C278.5 203.286 279.419 197.071 279.852 190.716L275.851 185.821L257.212 200.714ZM96.2695 201.612C107.311 200.733 118.668 200.09 130.28 199.703L109.578 186.194L96.2695 201.612Z" fill="white"/>
</mask>
<g mask="url(#mask3_949_4790)">
<path id="Fill 10" fill-rule="evenodd" clip-rule="evenodd" d="M90.6738 214.924H285.45V180.223H90.6738V214.924Z" fill="#E0E2EE"/>
</g>
</g>
<g id="Group 15">
<mask id="mask4_949_4790" style="mask-type:luminance" maskUnits="userSpaceOnUse" x="94" y="201" width="3" height="2">
<path id="Clip 14" fill-rule="evenodd" clip-rule="evenodd" d="M94.0312 201.653L95.1842 202.613L96.2701 201.492C95.5223 201.541 94.7734 201.595 94.0312 201.653Z" fill="white"/>
</mask>
<g mask="url(#mask4_949_4790)">
<path id="Fill 13" fill-rule="evenodd" clip-rule="evenodd" d="M88.4355 208.21H101.868V195.896H88.4355V208.21Z" fill="#F1F2F7"/>
</g>
</g>
<g id="Group 18">
<mask id="mask5_949_4790" style="mask-type:luminance" maskUnits="userSpaceOnUse" x="47" y="181" width="48" height="27">
<path id="Clip 17" fill-rule="evenodd" clip-rule="evenodd" d="M47.0156 200C47.3671 202.385 47.7914 204.75 48.285 207.088C62.7242 204.868 78.041 203.083 94.0305 201.78L71.7645 181.342L47.0156 200Z" fill="white"/>
</mask>
<g mask="url(#mask5_949_4790)">
<path id="Fill 16" fill-rule="evenodd" clip-rule="evenodd" d="M41.4199 212.686H99.6289V175.746H41.4199V212.686Z" fill="#E0E2EE"/>
</g>
</g>
<g id="Group 21">
<mask id="mask6_949_4790" style="mask-type:luminance" maskUnits="userSpaceOnUse" x="121" y="243" width="89" height="9">
<path id="Clip 20" fill-rule="evenodd" clip-rule="evenodd" d="M121.699 247.63C121.699 249.793 141.245 251.548 165.357 251.548C189.468 251.548 209.014 249.793 209.014 247.63C209.014 245.467 189.468 243.712 165.357 243.712C141.245 243.712 121.699 245.467 121.699 247.63Z" fill="white"/>
</mask>
<g mask="url(#mask6_949_4790)">
<path id="Fill 19" fill-rule="evenodd" clip-rule="evenodd" d="M116.104 257.146H214.611V238.116H116.104V257.146Z" fill="#D8DBEA"/>
</g>
</g>
<g id="Group 24">
<mask id="mask7_949_4790" style="mask-type:luminance" maskUnits="userSpaceOnUse" x="269" y="260" width="17" height="17">
<path id="Clip 23" fill-rule="evenodd" clip-rule="evenodd" d="M269.777 268.657C269.777 272.967 273.303 276.493 277.613 276.493C281.923 276.493 285.449 272.967 285.449 268.657C285.449 264.349 281.923 260.821 277.613 260.821C273.303 260.821 269.777 264.349 269.777 268.657Z" fill="white"/>
</mask>
<g mask="url(#mask7_949_4790)">
<path id="Fill 22" fill-rule="evenodd" clip-rule="evenodd" d="M264.182 282.088H291.047V255.223H264.182V282.088Z" fill="#E1E3EF"/>
</g>
</g>
<g id="Group 47">
<path id="Fill 25" fill-rule="evenodd" clip-rule="evenodd" d="M164.199 152.498C160.554 152.498 157.599 149.543 157.599 145.898C157.599 142.254 160.554 139.3 164.199 139.3C167.844 139.3 170.799 142.254 170.799 145.898C170.799 149.543 167.844 152.498 164.199 152.498ZM164.199 136.567C159.045 136.567 154.866 140.745 154.866 145.899C154.866 151.055 159.045 155.232 164.199 155.232C169.352 155.232 173.532 151.055 173.532 145.899C173.532 140.745 169.352 136.567 164.199 136.567Z" fill="#D8DBEA"/>
<path id="Fill 27" fill-rule="evenodd" clip-rule="evenodd" d="M189.493 233.395H138.908C133.871 233.395 129.785 229.311 129.785 224.273V177.755C129.785 159.592 144.646 144.732 162.808 144.732H165.593C183.756 144.732 198.615 159.592 198.615 177.755V224.273C198.615 229.311 194.531 233.395 189.493 233.395Z" fill="#D8DBEA"/>
<path id="Fill 29" fill-rule="evenodd" clip-rule="evenodd" d="M202.76 222.313H202.266C200.257 222.313 198.615 220.67 198.615 218.663V192.715C198.615 190.707 200.257 189.064 202.266 189.064H207.214C209.222 189.064 210.864 190.707 210.864 192.715V214.208C210.864 218.666 207.217 222.313 202.76 222.313Z" fill="#759FDA"/>
<path id="Fill 31" fill-rule="evenodd" clip-rule="evenodd" d="M126.137 222.313H125.642C121.183 222.313 117.536 218.666 117.536 214.208V192.715C117.536 190.707 119.178 189.064 121.187 189.064H126.137C128.144 189.064 129.786 190.707 129.786 192.715V218.663C129.786 220.67 128.144 222.313 126.137 222.313Z" fill="#759FDA"/>
<path id="Fill 33" fill-rule="evenodd" clip-rule="evenodd" d="M185.783 220.84L163.618 227.854L141.451 220.84V205.688H185.783V220.84Z" fill="#BEC0D6"/>
<path id="Fill 35" fill-rule="evenodd" clip-rule="evenodd" d="M150.42 224.873L149.38 225.91C148.516 226.771 147.117 226.771 146.252 225.91L145.213 224.873V215.183H150.42V224.873Z" fill="#759FDA"/>
<path id="Fill 37" fill-rule="evenodd" clip-rule="evenodd" d="M148.868 223.166C148.868 223.749 148.397 224.219 147.816 224.219C147.234 224.219 146.763 223.749 146.763 223.166C146.763 222.584 147.234 222.114 147.816 222.114C148.397 222.114 148.868 222.584 148.868 223.166Z" fill="#F7FFF6"/>
<path id="Fill 39" fill-rule="evenodd" clip-rule="evenodd" d="M180.168 224.873L179.128 225.91C178.264 226.771 176.865 226.771 176 225.91L174.961 224.873V215.183H180.168V224.873Z" fill="#759FDA"/>
<path id="Fill 41" fill-rule="evenodd" clip-rule="evenodd" d="M178.619 223.166C178.619 223.749 178.148 224.219 177.567 224.219C176.985 224.219 176.514 223.749 176.514 223.166C176.514 222.584 176.985 222.114 177.567 222.114C178.148 222.114 178.619 222.584 178.619 223.166Z" fill="#F7FFF6"/>
<path id="Fill 43" fill-rule="evenodd" clip-rule="evenodd" d="M195.311 179.462V184.397V194.64L136.881 166.655C140.765 156.726 150.472 149.657 161.729 149.657H166.676C181.351 149.657 195.311 164.775 195.311 179.462Z" fill="white"/>
<path id="Fill 45" fill-rule="evenodd" clip-rule="evenodd" d="M136.878 182.041V177.107V166.863L195.309 194.849C191.425 204.777 181.719 211.846 170.46 211.846H165.514C150.838 211.846 136.878 196.729 136.878 182.041Z" fill="#759FDA"/>
</g>
<g id="Bee">
<path id="Stroke 3" d="M182.999 47.0156C144.222 50.2981 129.971 83.1199 141.646 102.252C149.884 115.751 163.844 133.994 189.867 129.618C215.888 125.241 218.081 101.159 204.376 97.8828C190.672 94.6081 141.85 109.886 147.367 145.18C151.35 170.645 185.874 177.986 185.874 177.986" stroke="#D7DAE9" stroke-width="2" stroke-dasharray="7"/>
<path id="Fill 5" fill-rule="evenodd" clip-rule="evenodd" d="M205.412 26.8657C205.412 26.8657 210.968 12.351 211.554 6.70467C211.862 3.75428 206.973 -4.46027 201.25 3.13819C195.528 10.7366 198.139 20.0533 205.412 26.8657Z" fill="#D8DBEA"/>
<path id="Fill 7_2" fill-rule="evenodd" clip-rule="evenodd" d="M185.695 11.0588C179.186 8.85751 176.239 10.5738 174.983 13.9995C173.727 17.4264 175.481 23.9492 185.298 25.4361C195.117 26.923 204.851 26.8659 204.851 26.8659C204.851 26.8659 192.204 13.2601 185.695 11.0588Z" fill="#D8DBEA"/>
<path id="Fill 9" fill-rule="evenodd" clip-rule="evenodd" d="M204.31 29.7409C204.458 29.1342 204.653 28.5527 204.871 27.9844C203.669 28.1742 202.446 28.4408 201.216 28.8018C199.881 29.1924 198.635 29.7047 197.463 30.2917C196.954 31.2528 196.542 32.2798 196.275 33.3825C194.625 40.1707 198.519 47.0126 205.062 49.253C205.771 49.1126 206.482 48.9502 207.195 48.7418C209.188 48.1581 211.026 47.3856 212.688 46.4904C206.298 43.6871 202.621 36.6915 204.31 29.7409Z" fill="#D8DBEA"/>
<path id="Fill 11" fill-rule="evenodd" clip-rule="evenodd" d="M194.967 33.2832C195.123 32.6126 195.335 31.9713 195.57 31.3447C189.91 34.971 186.74 40.5989 187.263 43.8808C183.646 45.4354 181.342 46.745 181.342 46.745C181.342 46.745 184.071 46.5372 188.048 45.7729C190.177 48.8855 196.082 50.9696 202.61 50.2222C196.696 47.1638 193.358 40.2037 194.967 33.2832Z" fill="#D8DBEA"/>
<path id="Fill 13_2" fill-rule="evenodd" clip-rule="evenodd" d="M213.712 35.7414C212.212 35.3816 211.283 33.8754 211.644 32.3668C212.004 30.8687 213.519 29.9403 215.017 30.3001C216.524 30.6623 217.444 32.1742 217.085 33.6735C216.723 35.1809 215.219 36.1024 213.712 35.7414ZM220.281 33.7267C219.074 29.547 213.526 27.3885 206.981 28.1277C206.707 28.7753 206.474 29.4585 206.308 30.1662C204.851 36.3702 208.217 42.6108 213.927 44.7754C218.691 41.7446 221.366 37.453 220.281 33.7267Z" fill="#D8DBEA"/>
</g>
</g>
</svg>
