<svg xmlns="http://www.w3.org/2000/svg" width="60" height="60" viewBox="0 0 60 60" fill="none">
  <g clip-path="url(#clip0_1480_9821)">
    <path d="M30 60C46.5685 60 60 46.5685 60 30C60 13.4315 46.5685 0 30 0C13.4315 0 0 13.4315 0 30C0 46.5685 13.4315 60 30 60Z" fill="#32BA7C"/>
    <path d="M22.333 43.5341L37.7589 58.96C50.5349 55.5531 59.9986 43.9127 59.9986 30.001C59.9986 29.7171 59.9986 29.4332 59.9986 29.1493L47.885 17.9821L22.333 43.5341Z" fill="#41C78A"/>
    <path d="M30.7573 36.7193C32.0823 38.0442 32.0823 40.3155 30.7573 41.6405L28.0129 44.3849C26.6879 45.7099 24.4166 45.7099 23.0917 44.3849L11.0728 32.2714C9.74787 30.9464 9.74787 28.6752 11.0728 27.3502L13.8173 24.6058C15.1422 23.2808 17.4135 23.2808 18.7384 24.6058L30.7573 36.7193Z" fill="white"/>
    <path d="M41.2631 15.8042C42.588 14.4793 44.8593 14.4793 46.1842 15.8042L48.9287 18.5487C50.2536 19.8736 50.2536 22.1449 48.9287 23.4698L28.1085 44.1954C26.7836 45.5203 24.5123 45.5203 23.1874 44.1954L20.4429 41.4509C19.118 40.126 19.118 37.8547 20.4429 36.5298L41.2631 15.8042Z" fill="white"/>
  </g>
  <defs>
    <clipPath id="clip0_1480_9821">
      <rect width="60" height="60" fill="white"/>
    </clipPath>
  </defs>
</svg>