<svg width="20" height="20" viewBox="0 0 20 20" fill="none" xmlns="http://www.w3.org/2000/svg">
<path d="M7.2763 10.1288C8.92287 10.1288 10.2577 8.79396 10.2577 7.14739C10.2577 5.50082 8.92287 4.16602 7.2763 4.16602C5.62973 4.16602 4.29492 5.50082 4.29492 7.14739C4.29492 8.79396 5.62973 10.1288 7.2763 10.1288Z" fill="white"/>
<path d="M10.0869 7.1474C10.0819 8.30851 9.34666 9.38681 8.24809 9.78737C7.69034 9.99019 7.07683 10.0155 6.50388 9.85329C5.9529 9.6978 5.46445 9.3716 5.09939 8.93217C4.34559 8.02457 4.2594 6.69445 4.86784 5.69052C5.47459 4.68827 6.68134 4.1542 7.83232 4.39081C8.9816 4.62743 9.87398 5.56883 10.0548 6.72487C10.0785 6.86346 10.0869 7.00543 10.0869 7.1474C10.0886 7.36543 10.4267 7.36543 10.425 7.1474C10.4216 6.49839 10.2238 5.85277 9.84356 5.32545C9.47004 4.80489 8.95118 4.40771 8.34949 4.18631C7.11739 3.73335 5.67741 4.12715 4.84756 5.14123C4.43517 5.64657 4.18503 6.26009 4.13433 6.91078C4.08362 7.5581 4.24081 8.22063 4.57714 8.77499C4.90164 9.31076 5.39009 9.75188 5.96135 10.0105C6.5681 10.2843 7.24584 10.3637 7.89992 10.2336C9.16582 9.98343 10.1883 8.92203 10.3827 7.64768C10.4081 7.48205 10.4233 7.31472 10.4233 7.1474C10.4267 6.92938 10.0886 6.92938 10.0869 7.1474Z" fill="white"/>
<path d="M14.0189 10.4801C15.2482 10.4801 16.2448 9.48354 16.2448 8.25421C16.2448 7.02489 15.2482 6.02832 14.0189 6.02832C12.7895 6.02832 11.793 7.02489 11.793 8.25421C11.793 9.48354 12.7895 10.4801 14.0189 10.4801Z" fill="white"/>
<path d="M16.0753 8.2545C16.0703 9.10294 15.5345 9.89392 14.73 10.1846C13.9103 10.4804 12.9892 10.2286 12.4298 9.56097C11.8771 8.90013 11.8129 7.92493 12.2574 7.18973C12.6968 6.46128 13.5757 6.06579 14.414 6.23481C15.259 6.40382 15.9131 7.08832 16.0517 7.93845C16.0703 8.04324 16.0753 8.14971 16.0753 8.2545C16.077 8.47253 16.4151 8.47253 16.4134 8.2545C16.4083 7.25057 15.7728 6.34804 14.8314 6.00157C13.9002 5.66016 12.8067 5.95763 12.1779 6.72494C11.5408 7.5024 11.4444 8.62295 11.9667 9.48829C12.4889 10.3536 13.5165 10.7981 14.5035 10.5987C15.4585 10.4077 16.2342 9.60153 16.3813 8.63647C16.3999 8.50971 16.4117 8.38126 16.4134 8.25281C16.4151 8.03648 16.077 8.03648 16.0753 8.2545Z" fill="white"/>
<path d="M12.3841 14.5516V15.7702C12.3841 16.1572 12.063 16.4699 11.676 16.4699H2.87549C2.48845 16.4699 2.17578 16.1572 2.17578 15.7702V14.5516C2.17578 12.6739 3.69858 11.146 5.57631 11.146H8.97683C9.75091 11.146 10.4675 11.4063 11.0405 11.8423C11.8534 12.4643 12.3841 13.4463 12.3841 14.5516Z" fill="white"/>
<path d="M12.206 14.5515C12.206 14.9216 12.206 15.2917 12.206 15.6619C12.206 15.7126 12.2093 15.765 12.2043 15.8174C12.1924 15.9593 12.1198 16.0929 12.0099 16.1841C11.9068 16.2686 11.7801 16.3024 11.6482 16.3024C11.1699 16.3041 10.6916 16.3024 10.2133 16.3024C9.29895 16.3024 8.38459 16.3024 7.46855 16.3024C6.52715 16.3024 5.58575 16.3024 4.64435 16.3024C4.08661 16.3024 3.52718 16.3024 2.96944 16.3024C2.93733 16.3024 2.90691 16.3024 2.8748 16.3024C2.61114 16.2991 2.38128 16.1064 2.34579 15.841C2.32551 15.6923 2.34241 15.5317 2.34241 15.383C2.34241 15.1532 2.34241 14.9216 2.34241 14.6918C2.34241 14.4873 2.3441 14.2844 2.37452 14.0816C2.42353 13.7605 2.51818 13.4428 2.66015 13.1504C2.9424 12.5723 3.39028 12.0839 3.94464 11.7594C4.44323 11.467 5.01111 11.32 5.58744 11.32C5.87307 11.32 6.1587 11.32 6.44264 11.32C7.26404 11.32 8.08375 11.32 8.90515 11.32C9.52374 11.32 10.1203 11.467 10.651 11.7915C11.2764 12.1718 11.7682 12.7701 12.0133 13.4613C12.1434 13.8112 12.2043 14.178 12.206 14.5515C12.2077 14.7695 12.5457 14.7695 12.544 14.5515C12.5406 13.7402 12.2651 12.9594 11.7615 12.3239C11.2527 11.68 10.5091 11.2219 9.70458 11.058C9.32261 10.9802 8.94233 10.9819 8.55699 10.9819C8.09727 10.9819 7.63925 10.9819 7.17954 10.9819C6.74349 10.9819 6.30574 10.9819 5.86969 10.9819C5.48265 10.9819 5.099 10.9921 4.71872 11.085C3.35648 11.4163 2.2748 12.5791 2.0534 13.9684C1.98072 14.423 2.00438 14.8912 2.00438 15.3509C2.00438 15.5132 1.99255 15.6788 2.00776 15.841C2.04157 16.2146 2.31706 16.5458 2.69057 16.6202C2.84268 16.6506 3.00325 16.6405 3.15705 16.6405C3.43761 16.6405 3.71986 16.6405 4.00042 16.6405C4.89787 16.6405 5.79364 16.6405 6.69109 16.6405C7.67643 16.6405 8.66177 16.6405 9.64712 16.6405C10.2691 16.6405 10.8927 16.6405 11.5147 16.6405C11.5637 16.6405 11.6127 16.6405 11.6617 16.6405C11.9051 16.6388 12.1451 16.5441 12.3107 16.3616C12.4916 16.1639 12.5423 15.9255 12.5423 15.667C12.5423 15.4405 12.5423 15.214 12.5423 14.9875C12.5423 14.8422 12.5423 14.6968 12.5423 14.5515C12.544 14.3334 12.206 14.3334 12.206 14.5515Z" fill="white"/>
<path d="M17.8268 13.6635V14.806C17.8268 15.0206 17.6628 15.2032 17.4533 15.2201H13.162V14.4545C13.162 13.2308 12.5958 12.139 11.7119 11.4274C11.9959 11.3108 12.3051 11.2483 12.6313 11.2483H15.4082C16.7434 11.2483 17.8268 12.3283 17.8268 13.6635Z" fill="white"/>
<path d="M17.657 13.6628C17.657 14.0414 17.6689 14.4234 17.657 14.8036C17.652 14.9524 17.5404 15.0453 17.3985 15.0453C17.2751 15.0453 17.1517 15.0453 17.0283 15.0453C16.0328 15.0453 15.0374 15.0453 14.0402 15.0453C13.7461 15.0453 13.4537 15.0453 13.1596 15.0453C13.2154 15.1011 13.2729 15.1586 13.3286 15.2143C13.3286 14.851 13.3455 14.4808 13.3134 14.1191C13.2526 13.4161 13.0143 12.7299 12.6087 12.1502C12.3889 11.8341 12.127 11.5502 11.8278 11.3068C11.8025 11.4014 11.7788 11.4944 11.7535 11.589C12.0408 11.4724 12.3399 11.4149 12.6492 11.4149C12.7625 11.4149 12.8774 11.4149 12.9906 11.4149C13.4334 11.4149 13.8746 11.4149 14.3174 11.4149C14.6622 11.4149 15.0069 11.4149 15.3534 11.4149C15.8638 11.4149 16.3523 11.5603 16.763 11.8696C17.3258 12.2887 17.6537 12.9631 17.657 13.6628C17.6587 13.8808 17.9968 13.8808 17.9951 13.6628C17.9917 12.9648 17.7094 12.2871 17.2058 11.802C16.7241 11.3372 16.0751 11.0769 15.4058 11.0752C14.6486 11.0719 13.8898 11.0752 13.1326 11.0752C12.9788 11.0752 12.8267 11.0752 12.6729 11.0752C12.3281 11.0752 11.9884 11.1327 11.6673 11.2611C11.5625 11.3034 11.483 11.4538 11.5929 11.5434C12.0949 11.9507 12.4988 12.4797 12.7337 13.0848C12.8537 13.3941 12.9382 13.7203 12.972 14.0515C12.994 14.2577 12.9923 14.4639 12.9923 14.6718C12.9923 14.8527 12.9923 15.0335 12.9923 15.2143C12.9923 15.3056 13.0701 15.3834 13.1613 15.3834C13.4081 15.3834 13.6531 15.3834 13.8999 15.3834C14.4306 15.3834 14.9613 15.3834 15.492 15.3834C15.9855 15.3834 16.4807 15.3834 16.9742 15.3834C17.1111 15.3834 17.2463 15.3834 17.3832 15.3834C17.5996 15.3834 17.8024 15.2921 17.9156 15.0994C18.0289 14.9067 17.9951 14.6498 17.9951 14.4335C17.9951 14.1935 17.9951 13.9518 17.9951 13.7118C17.9951 13.6966 17.9951 13.6797 17.9951 13.6645C17.9951 13.4448 17.657 13.4448 17.657 13.6628Z" fill="white"/>
</svg>
