<svg width="20" height="20" viewBox="0 0 20 20" fill="none" xmlns="http://www.w3.org/2000/svg">
<path d="M2.86333 4.73435H15.5736V3.39679C15.5736 3.17917 15.3944 3 15.1704 3H2.86333C1.72941 3.0223 1.72889 4.71209 2.86333 4.73435Z" fill="white"/>
<path d="M12.4512 10.8718C12.4512 11.691 13.1232 12.363 13.9423 12.363H17.9999V9.38062H13.9423C13.1232 9.38062 12.4512 10.0462 12.4512 10.8718ZM14.3199 10.8718C14.3154 11.5085 13.3601 11.5074 13.3599 10.8718C13.3602 10.2361 14.3155 10.2351 14.3199 10.8718Z" fill="white"/>
<path d="M17.2062 5.37437H2.86397C2.53761 5.37437 2.2432 5.27199 2 5.09277V14.9806C2 15.5566 2.46718 16.0302 3.03678 16.0302H17.2062C17.6414 16.0302 17.9998 15.6718 17.9998 15.2238V13.0031H13.9422C11.125 12.9078 11.1285 8.83064 13.9423 8.74072H17.9998V6.18076C17.9998 5.73276 17.6414 5.37437 17.2062 5.37437Z" fill="white"/>
</svg>
