<svg xmlns="http://www.w3.org/2000/svg" width="60" height="60" viewBox="0 0 60 60" fill="none">
  <g clip-path="url(#clip0_1480_10047)">
    <path d="M59.4851 17.0588L42.9413 0.514922C42.6116 0.185273 42.1645 0 41.6984 0H18.3016C17.8355 0 17.3884 0.185273 17.0588 0.514922L0.514922 17.0588C0.185273 17.3884 0 17.8355 0 18.3016V41.6982C0 42.1644 0.185273 42.6115 0.514922 42.9411L17.0588 59.485C17.3884 59.8146 17.8355 59.9999 18.3016 59.9999H41.6982C42.1644 59.9999 42.6115 59.8146 42.9411 59.485L59.485 42.9411C59.8146 42.6115 59.9999 42.1644 59.9999 41.6982V18.3016C60 17.8355 59.8147 17.3884 59.4851 17.0588Z" fill="#F25A3C"/>
    <path d="M60 18.3012V41.6988C60 42.1641 59.8148 42.6117 59.4855 42.941L42.941 59.4855C42.6117 59.8148 42.1641 60 41.6988 60H30V0H41.6988C42.1641 0 42.6117 0.185156 42.941 0.514453L59.4855 17.059C59.8148 17.3883 60 17.8359 60 18.3012Z" fill="#E43539"/>
    <path d="M27.7931 12.4219H32.2061C33.229 12.4219 34.0358 13.2916 33.959 14.3116L32.4598 34.2335C32.3908 35.1506 31.6266 35.8594 30.707 35.8594H29.2922C28.3725 35.8594 27.6083 35.1505 27.5393 34.2335L26.0402 14.3116C25.9636 13.2916 26.7703 12.4219 27.7931 12.4219Z" fill="#E9F3FB"/>
    <path d="M33.9598 14.3121L32.4598 34.234C32.3918 35.1504 31.6266 35.8594 30.7078 35.8594H30V12.4219H32.2066C33.2297 12.4219 34.0359 13.2914 33.9598 14.3121Z" fill="#D6E9F8"/>
    <path d="M26.4922 44.0566V44.0684C26.4922 46.0068 28.0636 47.5781 30.002 47.5781C31.9404 47.5781 33.5117 46.0068 33.5117 44.0684V44.0566C33.5117 42.1182 31.9404 40.5469 30.002 40.5469C28.0636 40.5469 26.4922 42.1182 26.4922 44.0566Z" fill="#E9F3FB"/>
    <path d="M33.5098 44.0566V44.0684C33.5098 45.0375 33.1172 45.9152 32.482 46.5504C31.8469 47.1855 30.9691 47.5781 30 47.5781V40.5469C31.9383 40.5469 33.5098 42.1184 33.5098 44.0566Z" fill="#D6E9F8"/>
  </g>
  <defs>
    <clipPath id="clip0_1480_10047">
      <rect width="60" height="60" fill="white"/>
    </clipPath>
  </defs>
</svg>