<svg width="20" height="20" viewBox="0 0 20 20" fill="none" xmlns="http://www.w3.org/2000/svg">
<path d="M14.4629 3.96582H13.7371L13.8057 4.21153C13.9314 4.69725 13.8286 5.20011 13.5257 5.60011C13.2229 5.99439 12.76 6.22296 12.2571 6.22296H7.49143C6.98857 6.22296 6.52571 5.99439 6.22286 5.60011C5.92 5.20011 5.81714 4.69725 5.94286 4.21153L6.01143 3.96582H5.28571C4.02286 3.96582 3 4.98868 3 6.25153V15.7144C3 16.9772 4.02286 18.0001 5.28571 18.0001H14.4629C15.7257 18.0001 16.7486 16.9772 16.7486 15.7144V6.25153C16.7486 4.98868 15.7257 3.96582 14.4629 3.96582ZM9.87429 15.2327C7.86971 15.2327 6.23943 13.6018 6.23943 11.5972C6.23943 9.59268 7.87029 7.96182 9.87429 7.96182C11.8783 7.96182 13.5091 9.59268 13.5091 11.5972C13.5091 13.6018 11.8789 15.2327 9.87429 15.2327Z" fill="white"/>
<path d="M6.93828 4.47657L7.31771 3.04057C7.42571 2.63086 7.75256 2.31314 8.16456 2.216C8.73599 2.08114 9.30513 2.008 9.87428 2C10.4434 2.008 11.0126 2.08114 11.5834 2.216C11.996 2.31371 12.3223 2.63143 12.4303 3.04057L12.8097 4.47657C12.9057 4.83886 12.632 5.19429 12.2571 5.19429H7.48971C7.11599 5.19429 6.84228 4.83943 6.93828 4.47657Z" fill="white"/>
<path d="M9.87346 8.99023C8.43632 8.99023 7.2666 10.1594 7.2666 11.5971C7.2666 13.0348 8.43574 14.2039 9.87346 14.2039C11.3112 14.2039 12.4803 13.0348 12.4803 11.5971C12.4803 10.1594 11.3106 8.99023 9.87346 8.99023ZM11.2575 11.4662L9.73403 12.6937C9.64203 12.7674 9.52832 12.8074 9.41117 12.8074C9.39174 12.8074 9.37232 12.8062 9.35289 12.8039C9.21632 12.7885 9.09117 12.7188 9.0066 12.6102L8.40774 11.8462C8.23232 11.6222 8.27174 11.2994 8.49517 11.1239C8.7186 10.9479 9.04203 10.9885 9.21746 11.2108L9.4946 11.5645L10.6123 10.6639C10.834 10.4862 11.1575 10.5211 11.3357 10.7422C11.5135 10.9645 11.4786 11.2879 11.2575 11.4662Z" fill="white"/>
</svg>
